<svg width="32" height="32" viewBox="0 0 32 32" xmlns="http://www.w3.org/2000/svg">
  <defs>
    <radialGradient id="goldGrad" cx="50%" cy="30%" r="70%">
      <stop offset="0%" style="stop-color:#FFE55C;stop-opacity:1" />
      <stop offset="40%" style="stop-color:#FFD700;stop-opacity:1" />
      <stop offset="100%" style="stop-color:#B8860B;stop-opacity:1" />
    </radialGradient>
    <radialGradient id="crownGrad" cx="50%" cy="40%" r="60%">
      <stop offset="0%" style="stop-color:#FFEB3B;stop-opacity:1" />
      <stop offset="70%" style="stop-color:#FFC107;stop-opacity:1" />
      <stop offset="100%" style="stop-color:#FF8F00;stop-opacity:1" />
    </radialGradient>
    <filter id="glow">
      <feGaussianBlur stdDeviation="2" result="coloredBlur"/>
      <feMerge> 
        <feMergeNode in="coloredBlur"/>
        <feMergeNode in="SourceGraphic"/>
      </feMerge>
    </filter>
  </defs>
  
  <!-- Outer glow ring -->
  <circle cx="16" cy="16" r="15" fill="none" stroke="#FFD700" stroke-width="2" opacity="0.6" filter="url(#glow)"/>
  
  <!-- Main background -->
  <circle cx="16" cy="16" r="14" fill="url(#goldGrad)" stroke="#B8860B" stroke-width="1"/>
  
  <!-- Dragon frame ornaments -->
  <g stroke="#B8860B" stroke-width="1" fill="none">
    <!-- Top ornament -->
    <path d="M16 4 Q20 6 18 10 Q16 8 14 10 Q12 6 16 4 Z" fill="#FFD700"/>
    <!-- Bottom ornament -->
    <path d="M16 28 Q12 26 14 22 Q16 24 18 22 Q20 26 16 28 Z" fill="#FFD700"/>
    <!-- Left ornament -->
    <path d="M4 16 Q6 12 10 14 Q8 16 10 18 Q6 20 4 16 Z" fill="#FFD700"/>
    <!-- Right ornament -->
    <path d="M28 16 Q26 20 22 18 Q24 16 22 14 Q26 12 28 16 Z" fill="#FFD700"/>
  </g>
  
  <!-- Crown -->
  <g transform="translate(16,16)">
    <!-- Crown base -->
    <path d="M-6 1 L6 1 L5 6 L-5 6 Z" fill="url(#crownGrad)" stroke="#B8860B" stroke-width="0.5"/>
    <!-- Crown peaks -->
    <path d="M-6 1 L-4 -5 L-2 0 L0 -7 L2 0 L4 -5 L6 1" fill="url(#crownGrad)" stroke="#B8860B" stroke-width="0.5"/>
    <!-- Gems -->
    <circle cx="-3" cy="-2" r="1" fill="#FF1744"/>
    <circle cx="0" cy="-4" r="1.2" fill="#00E676"/>
    <circle cx="3" cy="-2" r="1" fill="#2196F3"/>
    <!-- Crown shine -->
    <path d="M-4 -2 Q0 -6 4 -2" stroke="#FFF" stroke-width="0.8" fill="none" opacity="0.8"/>
  </g>
  
  <!-- Inner shine -->
  <circle cx="12" cy="10" r="3" fill="#FFF" opacity="0.3"/>
</svg>
